# xmcd
#
# Track frame offsets: 
#        150
#        21421
#        37086
#        55982
#        68987
#        90217
#        111292
#        126057
#        143712
#        159234
#        174802
#        192642
#        220518
#
# Disc length: 3190 seconds
#
# Revision: 0
# Processed by: cddbd v1.5.2PL0 Copyright (c) Steve Scherf et al.
# Submitted via: ExactAudioCopyFreeDBPlugin 1.0
#
DISCID=af0c740d
DTITLE=Schorsch Hampel - Blues Hour
DYEAR=2012
DGENRE=Blues
TTITLE0=Blue On Mainstreet
TTITLE1=Reed Contact
TTITLE2=At The Lonely Spot
TTITLE3=Start Back From Home
TTITLE4=Start Back For Home
TTITLE5=Southern Baritone
TTITLE6=Delta Flat
TTITLE7=Far Eastern Strut
TTITLE8=Hoodoo Walk
TTITLE9=At Malena's
TTITLE10=Hayride
TTITLE11=Moonstruck Shuffle
TTITLE12=Martha's Farewell
EXTD=
EXTT0=
EXTT1=
EXTT2=
EXTT3=
EXTT4=
EXTT5=
EXTT6=
EXTT7=
EXTT8=
EXTT9=
EXTT10=
EXTT11=
EXTT12=
PLAYORDER=
